:SAMPLES-PER-SECOND 30
:FULLY-SPECIFIED
:DEGREES
394
root  -0.447791 40.9803 0.14021 8.64893 -77.808 -1.29773
RightUpLeg  -5.52301 -1.51409 -1.57161
RightLeg  -9.5717 -34.7623 7.33034
RightFoot  6.12317 0.00183917 0.261681
RightToes  -3.10678e-008 1.75238e-005 3.56266e-009
Spine  24.4623 1.97749 -5.90885
Spine1  -19.5515 0.83571 8.78437
HEad  -5.00024 -9.17383 1.73198
LeftShoulder1  0.174186 2.68856 -14.4119
LeftArm  -26.9212 -34.1665 -52.1664
LeftForeArm  125.189 -79.5871 -113.701
LeftHand  -0.51519 -4.99454 6.06173
RightShoulder  1.18509 1.01858 19.8652
RightArm  5.92746 -32.0173 49.6953
RightForeArm  39.078 72.4174 33.2402
RightHand  -0.154371 7.98871 -1.71174
LeftUpLeg  -9.7428 -0.724893 1.84519
LeftLeg  -5.54044 8.27955 -2.40097
LeftFoot  7.33051 0.389978 -2.64406
LeftToes  4.7643e-008 1.47522e-008 1.32869e-009
395
root  -0.512773 40.9935 0.217828 8.03107 -78.9857 -1.07861
RightUpLeg  -5.23041 -1.44027 -1.64345
RightLeg  -9.17743 -33.5521 6.76181
RightFoot  6.35118 0.0223956 0.135668
RightToes  -3.10678e-008 1.75238e-005 3.56266e-009
Spine  24.1762 2.15406 -5.69659
Spine1  -19.0616 1.02791 8.71764
HEad  -5.6379 -9.71686 1.5745
LeftShoulder1  0.199077 2.59362 -14.9928
LeftArm  -26.7175 -33.7088 -51.9352
LeftForeArm  124.416 -79.6297 -113.053
LeftHand  -0.500832 -5.19222 5.80101
RightShoulder  1.14456 0.885684 19.7231
RightArm  6.0597 -31.357 49.9119
RightForeArm  38.7485 72.2451 32.8443
RightHand  -0.201243 7.91733 -2.12515
LeftUpLeg  -8.94368 -0.696199 1.71694
LeftLeg  -5.76437 9.50374 -2.55569
LeftFoot  7.20431 0.336097 -2.32712
LeftToes  4.7643e-008 1.47522e-008 1.32869e-009
396
root  -0.601995 41.0077 0.308139 8.07349 -80.7631 -1.51569
RightUpLeg  -4.91721 -1.35912 -1.6542
RightLeg  -8.84172 -31.7907 6.27537
RightFoot  6.57368 0.00998501 0.222861
RightToes  -3.10678e-008 1.75238e-005 3.56266e-009
Spine  23.6913 2.27504 -5.07632
Spine1  -18.6507 1.26602 7.77423
HEad  -5.70694 -9.73616 1.98846
LeftShoulder1  0.195897 2.6092 -14.9739
LeftArm  -26.2305 -33.1835 -52.0575
LeftForeArm  123.806 -79.7213 -112.06
LeftHand  -0.522614 -4.88471 6.19726
RightShoulder  1.25494 1.21923 20.2619
RightArm  6.30908 -30.7045 49.5805
RightForeArm  38.4141 71.9651 32.1744
RightHand  -0.276228 7.73632 -2.80653
LeftUpLeg  -8.16264 -0.498145 1.73654
LeftLeg  -5.73342 11.111 -2.7342
LeftFoot  6.72772 0.28877 -2.07412
LeftToes  4.7643e-008 1.47522e-008 1.32869e-009
397
root  -0.722917 41.0148 0.39919 8.28436 -82.6257 -2.11206
RightUpLeg  -4.46704 -1.37259 -1.68933
RightLeg  -8.78874 -29.9121 6.0314
RightFoot  6.70967 -0.00599014 0.327479
RightToes  -3.10678e-008 1.75238e-005 3.56266e-009
Spine  22.7579 2.59952 -5.32742
Spine1  -17.9734 1.53823 8.33877
HEad  -5.59436 -9.60508 1.16701
LeftShoulder1  0.271144 2.28255 -15.3656
LeftArm  -26.3104 -32.1837 -51.4272
LeftForeArm  123.996 -79.6691 -112.565
LeftHand  -0.465308 -4.71866 5.63878
RightShoulder  1.22607 1.13919 20.0838
RightArm  6.68839 -29.7745 49.7242
RightForeArm  37.9426 71.6657 31.5191
RightHand  -0.261164 7.77977 -2.66032
LeftUpLeg  -7.57932 -0.299922 1.74753
LeftLeg  -5.21696 12.7353 -2.77961
LeftFoot  6.01589 0.257716 -1.92795
LeftToes  4.7643e-008 1.47522e-008 1.32869e-009
398
root  -0.881284 41.028 0.490431 11.3778 -85.0118 -5.71234
RightUpLeg  -4.06666 -1.29558 -1.72003
RightLeg  -8.26453 -27.5593 5.36811
RightFoot  6.72493 -0.0679529 0.717526
RightToes  -3.10678e-008 1.75238e-005 3.56266e-009
Spine  21.7384 2.64103 -5.42723
Spine1  -17.4075 1.58196 8.14579
HEad  -4.86766 -8.94723 0.698692
LeftShoulder1  0.280493 2.21873 -14.9363
LeftArm  -26.3122 -31.6631 -50.9235
LeftForeArm  121.725 -79.8284 -110.259
LeftHand  -0.493223 -4.98419 5.81888
RightShoulder  1.19824 1.02344 20.1511
RightArm  7.2509 -28.8108 50.0213
RightForeArm  37.0556 71.2349 30.6644
RightHand  -0.378779 8.07575 -3.63689
LeftUpLeg  -6.55815 -0.0689478 1.72974
LeftLeg  -5.07314 14.8573 -2.94059
LeftFoot  5.37361 0.225046 -1.75584
LeftToes  4.7643e-008 1.47522e-008 1.32869e-009
399
root  -1.0668 41.0429 0.600088 -6.25476 -87.9531 11.1414
RightUpLeg  -3.36011 -1.03122 -1.56036
RightLeg  -7.84303 -24.9204 4.66665
RightFoot  6.71356 -0.129306 1.10364
RightToes  -3.10678e-008 1.75238e-005 3.56266e-009
Spine  20.8399 2.49114 -5.47947
Spine1  -17.0966 1.46461 8.02291
HEad  -4.01812 -8.30774 0.858892
LeftShoulder1  0.279542 2.22512 -14.9765
LeftArm  -25.5405 -31.2729 -50.6445
LeftForeArm  120.139 -80.0005 -107.945
LeftHand  -0.533315 -5.13852 6.18501
RightShoulder  1.22214 1.09602 20.2602
RightArm  7.21584 -28.5721 50.4725
RightForeArm  36.8594 71.1275 30.4579
RightHand  -0.329549 8.15728 -3.19476
LeftUpLeg  -5.22684 0.40254 1.86178
LeftLeg  -4.76006 17.193 -3.1033
LeftFoot  4.5114 0.206255 -1.6754
LeftToes  4.7643e-008 1.47522e-008 1.32869e-009
400
root  -1.26714 41.0518 0.742997 112.58 -88.708 -108.42
RightUpLeg  -2.94089 -0.921926 -1.55125
RightLeg  -6.93915 -21.92 3.82775
RightFoot  6.6426 -0.203522 1.57398
RightToes  -3.10678e-008 1.75238e-005 3.56266e-009
Spine  19.5873 2.1849 -5.99053
Spine1  -16.6099 1.1078 8.64505
HEad  -4.14365 -7.58531 0.265604
LeftShoulder1  0.327291 2.00748 -14.9919
LeftArm  -24.998 -31.0161 -50.5152
LeftForeArm  118.057 -80.1222 -105.716
LeftHand  -0.548133 -5.42906 6.19382
RightShoulder  1.17823 0.963121 20.0547
RightArm  7.34046 -28.5994 50.7803
RightForeArm  37.3476 71.3814 30.9509
RightHand  -0.306984 7.80751 -3.06839
LeftUpLeg  -3.8457 0.667563 1.80249
LeftLeg  -4.59451 19.8861 -3.19265
LeftFoot  3.674 0.165143 -1.42619
LeftToes  4.7643e-008 1.47522e-008 1.32869e-009
401
root  -1.50209 41.0575 0.90794 179.283 -85.6119 -175.871
RightUpLeg  -2.44647 -0.902775 -1.55498
RightLeg  -6.21928 -18.5098 3.20154
RightFoot  6.58035 -0.259998 1.9339
RightToes  -3.10678e-008 1.75238e-005 3.56266e-009
Spine  18.2404 1.47529 -6.38603
Spine1  -15.9227 0.365337 9.10123
HEad  -3.86615 -7.2447 -0.41227
LeftShoulder1  0.337543 1.95781 -14.9459
LeftArm  -24.4021 -30.8143 -49.9148
LeftForeArm  117.036 -80.1536 -104.848
LeftHand  -0.513082 -5.16409 5.93928
RightShoulder  1.10584 0.714198 19.8909
RightArm  7.69536 -28.2279 51.1323
RightForeArm  37.2094 71.1997 30.55
RightHand  -0.241768 8.20445 -2.43691
LeftUpLeg  -2.3939 0.799311 1.67517
LeftLeg  -4.37525 23.131 -3.09535
LeftFoot  2.75924 0.188888 -1.66076
LeftToes  4.7643e-008 1.47522e-008 1.32869e-009
